<svg width="359" height="619" viewBox="0 0 359 619" fill="none" xmlns="http://www.w3.org/2000/svg">
<path d="M264.151 61.7512C264.347 79.5797 264.935 97.4083 262.388 106.616C260.35 113.983 260.233 120.004 260.429 122.094" stroke="black"/>
<path d="M262.584 127.972C265.718 108.576 266.11 101.327 269.637 90.943C272.458 82.6361 272.641 70.3716 272.38 65.2777" stroke="black"/>
<path d="M265.914 58.0287C269.676 59.1259 272.575 61.3593 273.555 62.3389H276.298C276.559 61.0981 278.179 59.361 282.567 62.3389C288.053 66.0614 297.457 95.2532 300.2 111.906C302.394 125.229 304.118 136.004 304.706 139.727" stroke="black"/>
<path d="M271.988 149.523C279.629 134.241 285.898 133.261 293.147 136.592C300.396 139.923 304.118 138.943 307.253 141.294C309.761 143.175 311.694 149 312.347 151.678" stroke="black"/>
<path d="M276.494 159.318C294.126 155.4 298.241 147.367 302.747 147.955C306.352 148.425 309.082 151.808 309.996 153.441" stroke="black"/>
<path d="M277.082 66.0614C287.857 80.3634 289.229 116.804 290.208 123.661C290.992 129.147 291.71 132.478 291.971 133.457" stroke="black"/>
<path d="M275.906 71.1552C280.02 93.4899 279.041 128.559 281 131.302" stroke="black"/>
<path d="M274.339 141.882C266.698 113.278 270.029 102.698 272.184 93.4899" stroke="black"/>
<path d="M194.208 70.3716C204.984 88.7879 203.808 87.2205 206.747 94.6654C209.098 100.621 212.298 103.939 213.604 104.853" stroke="black"/>
<path d="M214.78 107.988C218.502 90.1593 223.792 85.2614 230.257 80.1675C235.429 76.0924 236.592 71.5471 236.527 69.7838" stroke="black"/>
<path d="M200.282 122.29C185.549 105.049 180.429 88.3307 179.71 82.1267" stroke="black"/>
<path d="M171.16 171.266C170.394 185.065 179.338 190.943 181.126 200.142C182.915 209.341 184.193 212.663 190.837 216.752C197.481 220.84 194.159 225.695 200.803 231.062C206.118 235.355 213.75 240.516 216.901 242.561" stroke="black"/>
<path d="M169.372 176.632C160.428 198.353 159.15 203.975 164.261 211.641C169.372 219.307 167.583 226.206 172.182 224.929C176.782 223.651 176.271 225.184 176.016 230.295C175.76 235.406 183.171 230.039 187.77 237.706C192.37 245.372 186.237 245.116 190.581 257.893C194.925 270.67 203.613 272.969 205.147 269.392C206.68 265.814 203.102 259.171 213.068 265.303C223.034 271.436 236.066 278.591 238.366 271.947C240.206 266.632 235.044 261.726 232.233 259.937" stroke="black"/>
<path d="M160.939 212.663C152.251 238.217 156.339 266.07 152.762 283.446C149.184 300.823 151.74 306.7 148.418 307.978C145.096 309.256 147.14 311.3 146.629 320.499C146.22 327.859 144.585 334.979 143.818 337.62" stroke="black"/>
<path d="M19.8409 101.327C22.7797 106.029 23.5634 109.555 36.1022 117.588C48.6409 125.621 51.9715 131.302 62.1593 136.2C72.347 141.098 86.2572 147.172 90.3715 149.523C94.4858 151.874 96.8368 150.306 99.1878 148.151C101.069 146.427 104.543 145.082 106.045 144.625" stroke="black"/>
<path d="M90.5674 119.351C89.9797 127.776 89.7838 128.363 98.0123 136.984C106.241 145.604 113.098 150.502 116.037 153.637C118.976 156.772 122.698 156.772 122.894 155.204C123.09 153.637 121.914 140.51 125.245 138.747C128.576 136.984 136.608 128.755 142.486 126.404C147.188 124.523 152.412 121.963 154.437 120.918" stroke="black"/>
<path d="M35.7103 96.2328C45.1144 102.11 64.9021 112.494 73.1307 115.041C79.7136 117.078 85.8001 118.763 88.0205 119.351" stroke="black"/>
<path d="M92.9184 120.331C96.6409 120.723 94.4858 122.486 101.539 114.649C108.592 106.812 130.927 91.3348 136.608 83.8899C142.29 76.445 139.155 73.5063 142.094 67.4328C145.033 61.3593 148.559 59.4002 152.086 60.3797C155.612 61.3593 156.2 60.5757 160.902 58.8124C164.664 57.4018 167.041 58.2246 167.759 58.8124" stroke="black"/>
<path d="M153.261 65.2777C152.282 88.396 161.686 99.3675 163.253 108.184C164.82 117 172.461 128.755 174.42 132.869" stroke="black"/>
<path d="M167.563 63.5144C164.037 81.9307 168.543 97.0165 175.204 109.751C180.533 119.939 185 127.972 186.567 130.714" stroke="black"/>
<path d="M172.265 141.882C161.49 133.261 157.767 128.951 156.396 112.886C155.299 100.034 149.408 87.1552 146.6 82.3226" stroke="black"/>
<path d="M166.192 145.604C156.2 129.147 155.025 118.959 154.045 112.69" stroke="black"/>
<path d="M166.78 148.739C168.974 155.165 169.914 165.653 170.11 170.094" stroke="black"/>
<path d="M172.657 167.939C178.927 161.513 197.735 153.114 206.355 149.718" stroke="black"/>
<path d="M168.543 147.563C179.122 137.963 189.506 132.282 199.498 129.343" stroke="black"/>
<path d="M229.669 146.976C251.142 148.386 265 153.441 269.245 155.792" stroke="black"/>
<path d="M233.196 127.384C249.653 126.13 259.645 131.433 262.584 134.241" stroke="black"/>
<path d="M263.367 136.592C266.659 146.936 268.657 151.743 269.245 152.853" stroke="black"/>
<path d="M146.373 320.244C135.641 332.765 131.297 348.097 136.663 346.053C142.029 344.008 158.384 354.741 159.661 348.352C160.683 343.242 160.087 340.772 159.661 340.175" stroke="black"/>
<path d="M147.396 338.387C158.128 340.431 167.583 338.387 171.16 338.387C174.738 338.387 180.871 345.542 176.016 335.576C171.16 325.61 169.372 317.688 173.716 298.012C177.191 282.271 176.697 264.537 176.016 257.637" stroke="black"/>
<path d="M180.36 334.298C174.227 322.032 179.082 327.654 189.814 327.654C198.4 327.654 201.228 325.439 201.569 324.332C193.733 319.732 179.9 309.102 187.259 303.378C196.458 296.223 209.491 312.833 217.923 303.378" stroke="black"/>
<path d="M221.245 300.567C220.99 284.98 232.744 290.09 221.245 282.424C212.046 276.291 208.383 273.055 207.702 272.203" stroke="black"/>
<path d="M179.337 166.922C178.929 181.641 179.167 188.728 179.337 190.431" stroke="black"/>
<path d="M189.048 162.578C188.843 183.43 187.089 200.738 186.237 206.786" stroke="black"/>
<path d="M199.014 155.167C201.825 178.932 202.847 199.12 202.847 210.108C202.847 221.096 207.191 231.062 206.424 232.595" stroke="black"/>
<path d="M206.68 151.59C205.147 173.055 208.98 201.419 211.535 213.174C213.579 222.578 215.283 234.639 215.879 239.494" stroke="black"/>
<path d="M214.346 154.145C214.346 175.099 219.201 206.786 222.267 219.818C224.721 230.244 228.4 246.649 229.934 253.549" stroke="black"/>
<path d="M222.268 156.956C224.312 183.787 226.101 214.196 232.489 232.084C237.6 246.394 240.581 258.659 241.433 263.004" stroke="black"/>
<path d="M243.477 268.114C254.465 275.014 261.876 269.392 268.519 276.803C275.163 284.213 271.33 286.513 278.741 289.324C284.669 291.572 314.771 289.068 329.081 287.535" stroke="black"/>
<path d="M227.378 159.001C230.189 191.198 238.366 217.774 241.433 231.573C243.886 242.612 249.439 260.022 251.91 267.348" stroke="black"/>
<path d="M233.767 153.89C241.944 187.621 252.932 230.039 256.254 246.138C258.911 259.017 261.279 266.496 262.131 268.625" stroke="black"/>
<path d="M238.877 150.568C247.821 176.377 257.276 224.673 259.831 237.45C261.876 247.671 268.179 268.285 271.075 277.314" stroke="black"/>
<path d="M264.431 155.934C273.886 172.033 275.163 175.866 281.552 186.854C286.663 195.644 293.732 211.982 296.628 219.051" stroke="black"/>
<path d="M300.972 220.84C310.938 239.239 313.494 250.993 320.904 256.871C326.833 261.573 335.64 271.096 339.303 275.269" stroke="black"/>
<path d="M258.809 159.001C268.264 188.132 269.542 189.92 278.485 216.752C285.64 238.217 292.199 268.966 294.584 281.658" stroke="black"/>
<path d="M247.821 157.978C263.409 192.987 265.198 227.229 274.141 248.438C281.296 265.406 283.085 278.336 283.085 282.68" stroke="black"/>
<path d="M270.819 175.61C297.139 224.418 300.206 256.871 304.294 266.837C308.383 276.803 311.961 284.213 310.938 285.235" stroke="black"/>
<path d="M228.656 289.068C235.811 290.857 240.155 288.302 239.133 292.39C238.111 296.479 238.877 296.734 243.477 297.245C247.157 297.654 251.143 298.949 252.676 299.545C251.143 295.797 248.537 287.279 250.376 283.191C252.216 279.102 253.528 276.888 253.954 276.291" stroke="black"/>
<path d="M255.487 300.567C264.431 303.378 268.775 297.245 272.864 305.167C276.952 313.089 269.031 317.177 272.864 319.477C276.697 321.777 289.984 326.888 294.073 320.755C298.162 314.622 294.329 309.767 292.029 305.167" stroke="black"/>
<path d="M298.928 320.755C306.083 321.266 307.616 313.6 313.494 317.177C319.371 320.755 314.26 320.755 324.737 318.966C335.214 317.177 362.812 306.956 355.657 312.066C348.502 317.177 332.914 316.922 323.204 323.566C313.494 330.209 302.25 330.465 295.095 335.32C289.371 339.204 286.066 341.879 285.129 342.731" stroke="black"/>
<path d="M271.586 153.89C277.974 166.411 277.463 164.878 286.407 177.399C295.351 189.92 296.117 203.975 303.783 213.941C311.449 223.907 315.794 228.762 319.882 236.683C323.971 244.605 325.759 254.315 330.104 258.148C334.448 261.981 335.214 269.648 339.814 273.992C344.414 278.336 349.78 277.058 346.713 270.925C343.647 264.792 341.603 258.915 339.814 252.016" stroke="black"/>
<path d="M300.206 151.079C312.727 163.345 313.749 182.254 320.904 199.631C326.628 213.532 331.977 223.821 333.937 227.229" stroke="black"/>
<path d="M339.558 236.172C348.247 247.416 350.546 248.183 352.846 254.571C355.146 260.959 360.512 268.881 357.701 272.458C354.891 276.036 352.591 279.613 350.546 280.891C348.911 281.913 346.288 281.317 345.18 280.891" stroke="black"/>
<path d="M342.503 260.632C347.009 263.637 347.159 270.546 349.262 271.448" stroke="black"/>
<path d="M347.566 272.509C347.948 271.65 348.282 271.249 348.402 271.156" stroke="black"/>
<path d="M341.603 277.825C342.829 283.344 338.536 284.383 336.236 284.213" stroke="black"/>
<path d="M343.647 284.213C350.802 294.026 354.976 303.974 356.168 307.722" stroke="black"/>
<path d="M324.737 239.239C332.506 235.559 337.514 235.321 339.047 235.661" stroke="black"/>
<path d="M320.649 234.895C330.461 229.579 336.833 228.762 338.792 229.017" stroke="black"/>
<path d="M340.325 229.784C344.822 235.508 343.902 238.813 342.88 239.75" stroke="black"/>
<path d="M232.233 8.23447C234.022 21.7778 226.867 17.4338 224.312 29.6995C221.756 41.9652 224.823 45.7982 214.601 52.6977C204.38 59.5971 209.746 59.8527 207.957 70.0741C206.526 78.2512 203.102 80.2955 201.569 80.2955" stroke="black"/>
<path d="M226.101 6.44571C224.312 26.122 220.223 22.5444 213.068 31.9993C205.913 41.4541 206.68 42.7318 206.169 53.4643C205.76 62.0503 201.058 70.6703 198.758 73.9071" stroke="black"/>
<path d="M207.702 5.16803C203.613 22.2889 201.058 23.3111 201.825 33.788C202.591 44.265 207.446 51.1645 201.825 57.5528C197.327 62.6636 193.477 64.1116 192.114 64.1968" stroke="black"/>
<path d="M203.869 2.61267C196.714 15.1339 203.613 15.1339 196.714 22.2889C189.814 29.4439 184.704 29.4439 187.259 38.8987C189.814 48.3536 184.193 46.0537 184.448 57.0418C184.653 65.8322 186.407 73.4812 187.259 76.207" stroke="black"/>
<path d="M167.327 59.8527C175.504 42.4763 178.571 51.9311 178.06 40.432C177.549 28.9329 178.06 28.6773 180.104 19.9891C181.74 13.0385 184.874 7.21232 186.237 5.16803" stroke="black"/>
<path d="M225.589 35.5768C235.555 30.7216 234.789 34.5546 240.922 33.277C247.054 31.9993 244.755 25.6109 246.543 23.3111C248.332 21.0113 253.187 14.3673 254.209 9.51215C255.027 5.628 255.572 1.59053 255.743 0.057312" stroke="black"/>
<path d="M254.465 16.9227C256.765 28.9328 259.576 23.8222 263.153 36.0879C266.015 45.9004 264.346 53.6346 263.153 56.2752" stroke="black"/>
<path d="M247.054 31.4882C253.443 47.587 244.244 48.6091 241.177 56.7862C238.724 63.328 246.118 67.6891 250.121 69.052" stroke="black"/>
<path d="M251.143 27.9107C259.32 41.7096 249.099 46.5648 248.843 56.0196C248.588 65.4745 256.509 60.6193 257.531 70.5852C258.554 80.5511 256.765 83.6175 259.32 85.9173" stroke="black"/>
<path d="M260.342 75.1848C261.62 62.6636 254.976 67.7743 254.976 59.0861C254.976 52.1355 258.554 45.6279 260.342 43.2429" stroke="black"/>
<path d="M228.911 36.5989C236.322 53.2087 236.322 61.6414 235.044 64.9634C233.767 68.2853 232.233 66.7521 240.411 70.5852C246.952 73.6516 249.951 77.8254 250.632 79.5289" stroke="black"/>
<path d="M234.533 37.6211C238.213 52.3399 237.77 59.0861 237.089 60.6193" stroke="black"/>
<path d="M191.859 88.9837C200.854 106.973 203.954 114.708 204.38 116.326" stroke="black"/>
<path d="M232.489 111.982C237.191 95.8321 238.707 86.3432 238.877 83.6175" stroke="black"/>
<path d="M228.145 88.7282C228.145 100.789 225.589 106.531 224.312 107.893" stroke="black"/>
<path d="M245.777 82.0843C246.799 98.0297 243.307 106.616 241.433 108.916" stroke="black"/>
<path d="M251.91 85.4062C253.136 103.6 250.036 110.704 248.332 111.982" stroke="black"/>
<path d="M218.946 118.626C200.291 126.803 199.78 142.135 211.279 144.435C222.779 146.735 235.3 145.202 232.489 131.914C230.24 121.283 224.908 118.626 222.523 118.626" stroke="black"/>
<path d="M226.356 117.093C227.974 117.689 231.978 120.159 235.044 125.27C238.877 131.658 241.177 151.079 220.223 150.568C199.269 150.057 193.647 132.68 203.613 123.481C211.586 116.122 218.009 115.134 220.223 115.559" stroke="black"/>
<path d="M207.702 135.747C216.288 131.045 225.249 131.743 228.656 132.68" stroke="black"/>
<path d="M210.257 139.58C221.296 138.558 226.612 139.154 227.889 139.58" stroke="black"/>
<path d="M236.577 140.602C248.23 136.922 252.506 135.151 253.187 134.725" stroke="black"/>
<path d="M198.758 144.946C189.968 147.808 179.934 154.997 176.016 158.234" stroke="black"/>
<path d="M231.696 299.002C220.828 340.734 218.22 339.43 218.22 356.819M168.227 342.473C168.662 375.511 170.401 371.599 170.836 384.64C171.27 397.682 172.14 405.072 174.313 418.983C176.487 432.894 178.661 455.064 184.312 468.975C189.963 482.886 198.657 502.014 199.527 508.969C200.222 514.533 199.817 518.823 199.527 520.272" stroke="black"/>
<path d="M218.22 364.644C218.567 384.467 216.046 400.145 214.742 405.507C216.771 409.274 220.915 419.331 221.263 429.416" stroke="black"/>
<path d="M219.524 531.14C220.393 502.014 223.002 506.361 222.567 486.799C222.132 467.236 220.828 428.112 226.479 412.897C232.131 397.682 228.653 386.814 230.392 372.034C232.131 357.253 233.435 346.386 235.608 333.779C237.347 323.693 236.333 308.42 235.608 302.045" stroke="black"/>
<path d="M287.774 329.866C281.688 357.253 279.08 359.862 275.602 374.207C272.124 388.553 270.82 389.857 271.255 404.203C271.69 418.548 264.734 469.41 256.909 485.494C249.084 501.579 244.737 519.402 244.737 528.097C244.737 535.052 244.737 539.399 244.737 540.703" stroke="black"/>
<path d="M217.002 526.641C205.67 539.64 202.67 545.973 202.67 555.305C202.67 564.637 202.004 581.302 198.671 586.968C195.338 592.634 196.004 600.633 200.67 604.299C205.337 607.965 216.002 596.3 222.335 600.3C227.401 603.499 227.556 606.521 227.001 607.632" stroke="black"/>
<path d="M244.332 544.973C244.332 554.971 241.666 557.971 241.666 565.97C241.666 573.969 243.999 583.968 241.666 590.967C239.333 597.966 239.999 600.633 238.999 606.632C237.999 612.631 236 619.964 219.335 617.964C202.67 615.964 192.671 615.631 190.672 606.632C188.672 597.633 198.337 592.967 196.338 581.968C194.338 570.97 190.005 563.304 194.671 557.971C198.404 553.705 200.448 550.861 201.004 549.972" stroke="black"/>
<path d="M198.452 518.843C202.057 526.654 212.421 526.954 215.125 526.504" stroke="black"/>
<path d="M197.851 522.598C197.1 531.16 199.353 534.615 199.503 540.023C199.623 544.349 199.553 549.536 199.503 551.589" stroke="black"/>
<path d="M16.8168 96.6498C14.8577 95.0314 10.4284 90.1081 8.38409 83.362C5.82874 74.9293 0.718027 70.5852 1.48463 67.0077C2.25124 63.4302 5.57321 64.4523 9.66178 69.8186C12.9326 74.1116 15.7946 76.0366 16.8168 76.4625" stroke="black"/>
<path d="M33.9377 93.0723C33.4266 83.1064 35.982 78.7623 35.982 74.6737C35.982 71.4029 34.6191 70.0741 33.9377 69.8186" stroke="black"/>
<path d="M16.5847 74.2189C16.673 68.2148 16.673 65.4776 14.1123 60.2681C11.5517 55.0585 12.523 50.5554 13.3177 50.6437C14.1123 50.732 17.9091 55.3234 19.5867 57.7957C21.2644 60.2681 22.5005 66.0073 23.2952 68.303" stroke="black"/>
<path d="M17.0261 51.3501C22.6771 52.4979 25.7675 58.5021 26.9154 62.1223C27.8337 65.0184 28.181 70.3927 28.2398 72.7179" stroke="black"/>
<path d="M24.9729 55.4117C30.2707 58.4138 32.3015 68.4796 32.2132 70.952C32.1425 72.9298 32.1837 74.8959 32.2132 75.6317" stroke="black"/>
<path d="M154.039 214.963C154.295 200.142 157.872 92.3057 160.683 77.2291C162.932 65.1678 164.857 58.9157 165.539 57.2973" stroke="black"/>
<path d="M147.651 215.729C137.941 234.384 139.729 246.138 140.496 251.76C141.263 257.382 139.985 260.704 142.029 267.348C144.074 273.992 146.629 280.636 149.695 281.402" stroke="black"/>
<path d="M154.806 215.985C145.351 241.027 149.695 258.148 149.695 265.559C149.695 271.487 149.695 277.739 149.695 280.124" stroke="black"/>
<path d="M148.418 218.54C142.285 244.349 145.607 258.148 145.096 264.792C144.687 270.107 144.925 273.821 145.096 275.014" stroke="black"/>
<path d="M149.183 216.17C157.354 215.089 158.897 215.72 158.646 216.17" stroke="black"/>
<path d="M201.756 587.639C209.267 580.88 214.524 580.279 218.43 580.88C221.554 581.36 231.949 589.492 236.755 593.497C235.554 594.949 231.167 597.583 223.236 596.501C213.323 595.15 207.464 597.853 204.61 594.399" stroke="black"/>
<path d="M210.318 537.469C211.971 546.932 210.018 545.43 217.679 547.834C225.339 550.237 232.249 556.395 237.056 555.795C240.901 555.314 240.961 552.39 240.51 550.988" stroke="black"/>
<path d="M217.679 530.259C224.889 536.718 229.095 535.066 235.704 537.769C240.991 539.932 242.513 542.276 242.613 543.177" stroke="black"/>
<path d="M199.503 525.002C200.825 533.894 203.258 537.82 204.31 538.671" stroke="black"/>
<path d="M213.323 537.169C222.936 537.769 222.335 540.423 220.833 541.675C224.839 540.623 233.751 539.422 237.356 543.027C240.961 546.632 240.761 548.635 240.21 549.185" stroke="black"/>
<path d="M224.438 543.027C214.674 555.194 211.971 560.151 219.782 555.344C227.592 550.537 239.008 535.366 233.901 544.679C228.794 553.992 221.884 574.871 230.296 568.863C238.708 562.855 246.819 538.671 237.206 545.58C227.592 552.49 205.211 562.254 216.177 560.151C227.142 558.048 241.562 562.554 233 562.404C224.438 562.254 202.808 568.262 212.571 567.06C222.335 565.859 240.36 570.515 231.798 570.966C223.236 571.416 199.503 574.571 211.22 573.519C222.936 572.468 240.36 579.227 231.798 578.026C224.949 577.064 213.823 578.326 209.117 579.077C215.976 580.579 230.116 583.403 231.798 582.682C233.901 581.781 235.854 579.077 231.047 579.077" stroke="black"/>
</svg>
